<?xml version="1.0" standalone="no"?>
<!DOCTYPE svg PUBLIC "-//W3C//DTD SVG 20010904//EN"
 "http://www.w3.org/TR/2001/REC-SVG-20010904/DTD/svg10.dtd">
<svg version="1.0" xmlns="http://www.w3.org/2000/svg"
 width="512.000000pt" height="512.000000pt" viewBox="0 0 512.000000 512.000000"
 preserveAspectRatio="xMidYMid meet">
<metadata>
Created by potrace 1.14, written by Peter Selinger 2001-2017
</metadata>
<g transform="translate(0.000000,512.000000) scale(0.100000,-0.100000)"
fill="#000000" stroke="none">
<path d="M16 5101 c-16 -17 -17 -37 -14 -163 3 -140 4 -144 33 -188 39 -57
115 -98 177 -94 l43 3 -3 -1933 -2 -1932 -44 -1 c-60 -2 -110 -25 -151 -70
-47 -51 -55 -85 -55 -234 0 -162 -2 -159 143 -159 l106 0 3 -154 c2 -85 7
-158 11 -163 5 -4 1036 -9 2292 -11 2069 -2 2285 -1 2299 14 13 13 16 42 16
165 l0 149 115 0 c105 0 115 2 125 21 7 13 10 72 8 164 -3 141 -3 144 -33 187
-38 53 -98 87 -161 92 l-49 3 0 1928 0 1928 35 2 c93 5 163 52 196 131 21 50
20 297 -2 318 -14 14 -259 16 -2543 16 -2486 0 -2528 0 -2545 -19z"/>
</g>
</svg>
